<svg role="img" viewBox="0 0 24 24" xmlns="http://www.w3.org/2000/svg"><title>WhatsApp</title><path d="M17.472 14.382c-.297-.149-.88-.436-1.017-.486-.137-.05-.274-.074-.412.074-.138.148-.523.64-.642.768-.118.128-.236.148-.412.05-.176-.1-.747-.274-1.422-.867-.525-.443-.88-.99-1.002-1.158-.12-.17-.013-.263.087-.354.09-.08.197-.21.297-.347.1-.138.134-.236.2-.373.066-.138.034-.264-.017-.384-.05-.12-.412-1.002-.563-1.373-.148-.363-.304-.314-.412-.314h-.1a.482.482 0 0 0-.412.196c-.137.236-.523.61-.523 1.482 0 .87.536 1.724.61 1.842.074.118 1.053 1.633 2.54 2.26 1.482.628 2.643.5 3.122.472.5-.026 1.58-.64 1.803-1.26.225-.62.225-1.14.15-1.26-.074-.12-.274-.196-.412-.297zM12.002.002C6.476.002 2 4.478 2 10.004c0 1.758.455 3.42 1.258 4.885l-1.26 4.603 4.72-1.24c1.41.74 3.01.124 4.708.124h.002c5.525 0 10-4.478 10-10.002s-4.475-10-10-10.002z"/></svg>